# xmcd CD database file
#
# Track frame offsets:
#	150
#	20385
#	37260
#
# Disc length: 740 seconds
#
# Revision: 0
# Processed by: cddbd v1.5.1PL0 Copyright (c) Steve Scherf et al.
# Submitted via: CDex 1.51
#
DISCID=1f02e203
DTITLE=Tina Harrod - Shacked Up In Paradise - Bonus Remix CD
DYEAR=1900
DGENRE=Jazz
TTITLE0=Love and Glory
TTITLE1=Shacked Up In Paradise
TTITLE2=Long Way Home
EXTD=
EXTT0=
EXTT1=
EXTT2=
PLAYORDER=
